<?xml version="1.0" encoding="UTF-8" standalone="no"?>
<!-- Created with Inkscape (http://www.inkscape.org/) -->

<svg
   xmlns:dc="http://purl.org/dc/elements/1.1/"
   xmlns:cc="http://creativecommons.org/ns#"
   xmlns:rdf="http://www.w3.org/1999/02/22-rdf-syntax-ns#"
   xmlns:svg="http://www.w3.org/2000/svg"
   xmlns="http://www.w3.org/2000/svg"
   xmlns:sodipodi="http://sodipodi.sourceforge.net/DTD/sodipodi-0.dtd"
   xmlns:inkscape="http://www.inkscape.org/namespaces/inkscape"
   version="1.1"
   id="svg3699"
   width="1272"
   height="322"
   viewBox="0 0 1272 322"
   sodipodi:docname="logo.svg"
   inkscape:version="0.92.2 (5c3e80d, 2017-08-06)">
  <metadata
     id="metadata3705">
    <rdf:RDF>
      <cc:Work
         rdf:about="">
        <dc:format>image/svg+xml</dc:format>
        <dc:type
           rdf:resource="http://purl.org/dc/dcmitype/StillImage" />
        <dc:title></dc:title>
      </cc:Work>
    </rdf:RDF>
  </metadata>
  <defs
     id="defs3703" />
  <sodipodi:namedview
     pagecolor="#ffffff"
     bordercolor="#666666"
     borderopacity="1"
     objecttolerance="10"
     gridtolerance="10"
     guidetolerance="10"
     inkscape:pageopacity="0"
     inkscape:pageshadow="2"
     inkscape:window-width="1600"
     inkscape:window-height="877"
     id="namedview3701"
     showgrid="false"
     inkscape:zoom="1.28"
     inkscape:cx="995.04741"
     inkscape:cy="132.35646"
     inkscape:window-x="-8"
     inkscape:window-y="-8"
     inkscape:window-maximized="1"
     inkscape:current-layer="svg3699" />
  <path
     inkscape:connector-curvature="0"
     id="path3711"
     d="m 1177.7011,319.36558 c -9.8644,-0.28461 -30.8464,-9.31268 -42.4882,-18.28174 -3.8084,-2.93404 -7.0681,-5.77426 -7.2437,-6.31159 -0.2313,-0.70808 13.7842,-17.92645 18.1267,-22.26896 0.1945,-0.19452 4.3902,2.07976 9.3237,5.05397 12.0797,7.28227 21.3947,10.2634 31.7176,10.15067 25.4369,-0.27778 38.7972,-14.47722 38.9432,-41.38912 0.069,-12.67747 -0.3111,-12.9462 -9.5465,-6.75325 -10.1606,6.81346 -18.9308,9.22993 -33.3967,9.20192 -13.8038,-0.0267 -20.054,-1.29722 -30.3581,-6.171 -12.9956,-6.14686 -24.4402,-20.07188 -29.424,-35.80119 -2.1827,-6.88899 -2.2179,-7.90394 -2.2179,-64 V 85.795294 h 21 21 l 0.5401,50.499996 c 0.3436,32.12355 0.9319,51.60203 1.6167,53.52847 4.9661,13.97072 14.7243,21.63029 29.4833,23.14254 10.0932,1.03419 19.5665,-3.59008 27.5711,-13.45847 l 4.2888,-5.28746 v -53.99393 c 0,-42.292386 0.2709,-54.089846 1.25,-54.436566 0.6875,-0.24346 10.813,-0.56683 22.5011,-0.71861 l 21.2511,-0.27597 -0.01,75.499996 c -0.01,72.10419 -1.9954,90.49923 -1.9954,90.49923 -3.4479,14.38091 -11.9527,34.0239 -22.2612,45.13918 -12.9456,13.62842 -28.5612,21.571 -45.3493,23.0662 0,0 -24.2333,0.3698 -24.3224,0.36568 z m -523.06391,-69.0846 c -8.79696,-0.88257 -17.72857,-3.10143 -24.59253,-6.10947 -12.83977,-5.62686 -27.08774,-17.46854 -34.72883,-28.86361 l -3.67964,-5.4874 14.67795,-14.70245 14.67794,-14.70246 2.15316,5.29773 c 3.12621,7.69188 5.8377,11.69631 11.51674,17.00839 9.64645,9.02313 23.64237,13.05238 37.30472,10.73956 14.81343,-2.50767 25.79684,-10.9073 32.37496,-24.75895 3.28204,-6.91105 3.6797,-8.66576 4.09864,-18.08535 0.56679,-12.7441 -1.29252,-20.71198 -6.79063,-29.10054 -4.90493,-7.48354 -9.23571,-11.48936 -16.77818,-15.51924 l -6.16758,-3.29529 13.96065,-13.93393 13.96066,-13.933936 3.75598,1.96797 c 5.43107,2.84564 22.17333,20.003656 26.17928,26.829396 8.16025,13.90425 11.68868,29.92251 10.78345,48.95442 -0.91576,19.25344 -5.38418,31.92941 -16.34584,46.36982 -17.52346,23.08462 -45.22606,34.44899 -76.3609,31.32534 z M 107.92274,248.19592 C 92.530102,246.40393 75.937629,241.00249 63.137194,233.61662 29.745367,214.3495 7.4694126,181.56701 2.7824206,144.79529 1.288972,128.23473 2.2276507,113.0565 2.9570196,106.29529 4.0109206,96.331834 8.2439776,81.856784 13.104203,71.596744 30.073683,35.773824 64.436508,9.810644 102.63719,3.9492 c 13.52412,-2.2055454 35.72833,-0.9905883 39.13953,-0.77222 12.25962,0.398539 33.53929,6.727264 47.93799,14.257114 10.40972,5.44379 23.42248,14.62823 23.42248,16.53165 0,1.12558 -28.0574,32.50347 -29.64321,33.15137 -0.43322,0.17699 -2.71573,-1.00068 -5.07224,-2.61706 -16.0788,-11.0288 -39.31673,-17.23953 -59.23349,-15.83114 -12.29673,0.86955 -20.404331,3.01483 -31.502364,8.33558 -7.977083,3.82446 -10.804985,5.88493 -18.129773,13.20972 -7.324788,7.32479 -9.385255,10.15269 -13.20972,18.12977 -9.161976,19.110076 -10.877872,39.517306 -5.167262,61.454466 6.486733,24.91861 26.590598,44.24436 52.482379,50.45106 10.6475,2.55239 31.25422,2.80064 42.1603,0.5079 8.53284,-1.79381 20.51816,-7.03825 21.87385,-9.57137 1.44937,-2.70818 1.21509,-43.21719 -0.25847,-44.69075 -0.82876,-0.82876 -5.93333,-1.2 -16.5,-1.2 h -15.3 v -21.5 -21.5 h 39.5 39.5 v 57.48538 57.48537 l -5.4939,4.31198 c -26.84397,21.06891 -64.29328,30.91693 -101.22055,26.6179 z m 153.71445,-78.40063 c 0,-62.92173 0.26066,-79.504526 1.25,-79.521746 0.6875,-0.012 9.125,-0.90217 18.75,-1.97825 9.625,-1.07608 18.7375,-1.96629 20.25,-1.97825 l 2.75,-0.0217 v 7.37755 c 0,10.224606 1.07212,10.849416 8.58929,5.00569 11.97361,-9.30808 21.82916,-12.53315 38.22251,-12.50769 5.76401,0.009 10.83757,0.37811 11.27456,0.82036 0.66532,0.67332 -4.78084,39.039156 -5.70401,40.182296 -0.16798,0.20801 -2.31248,-0.56522 -4.76554,-1.7183 -5.69472,-2.67684 -16.08285,-4.32985 -20.61681,-3.28065 -8.89431,2.05821 -17.00475,8.8271 -23.43898,19.56191 l -3.56102,5.94117 v 50.80883 50.80883 h -21.5 -21.5 z M 815.26266,248.4983 C 814.86544,247.85559 774.50649,97.834924 772.09717,88.045294 l -0.6768,-2.75 h 20.10841 c 11.05963,0 20.10841,0.15007 20.10841,0.33348 0,1.21266 24.19414,92.630866 25.0065,94.487716 0.59106,1.35102 1.70042,2.18696 2.65418,2 1.27693,-0.25029 4.32421,-10.91722 13.80417,-48.3212 l 12.16551,-47.999996 h 15.90091 15.90091 l 11.09155,46.499996 c 6.10035,25.575 11.41169,47.7375 11.80296,49.25 0.70992,2.74422 2.9839,3.6745 4.19438,1.71591 0.35151,-0.56875 6.01376,-22.05625 12.58278,-47.75 6.56902,-25.69375 12.18831,-47.503406 12.4873,-48.465906 0.49391,-1.58995 2.36656,-1.75 20.47624,-1.75 10.96293,0 19.9034,0.3375 19.86769,0.75 -0.0357,0.4125 -9.82321,37.199996 -21.75,81.749996 l -21.68508,81 -19.56667,0.27053 -19.56667,0.27053 -10.6692,-35.77053 c -5.86806,-19.67379 -11.36799,-38.13303 -12.22207,-41.02053 -1.17244,-3.96384 -2.02177,-5.25 -3.46688,-5.25 -1.49587,0 -2.35739,1.47463 -3.9435,6.75 -1.11622,3.7125 -6.64209,22.1625 -12.27971,41 l -10.25023,34.25 h -19.20852 c -10.56468,0 -19.43017,-0.35865 -19.70108,-0.79699 z M 1027.6372,125.79529 c 0,-81.666666 -0.3387,-123.499995 -1,-123.499995 0.4794,-2.3409339 20.7322,-1.99869908 22.107,-1.99999997 20.6597,0 23.0427,0.167528 22.5,1.58178697 -0.3339,0.869983 -0.607,56.894982 -0.607,124.499998 v 122.91821 h -21.5 -21.5 z m -618.31961,97.47199 c -7.66122,-8.27483 -14.75912,-21.27085 -17.85852,-32.69833 -2.87333,-10.594 -3.10819,-34.39259 -0.44186,-44.77366 5.70564,-22.21424 21.30019,-41.86767 41.60181,-52.429736 13.15264,-6.84275 21.0074,-8.54024 39.51817,-8.54024 13.59631,0 17.17052,0.33702 23.79149,2.24331 13.48472,3.8825 27.57851,12.20878 36.67894,21.669066 l 3.47042,3.60766 -13.62126,13.62126 -13.62126,13.62126 -5.38705,-5.51775 c -8.70933,-8.92064 -18.25344,-12.74159 -31.87978,-12.76296 -12.98945,-0.0204 -23.01742,4.09626 -31.14526,12.78557 -9.05975,9.6856 -12.80098,19.39915 -12.76179,33.13406 0.0404,14.15062 3.28156,23.38007 11.51654,32.79389 l 4.32176,4.94041 -12.69528,12.6671 c -6.9824,6.96691 -13.20939,12.6671 -13.83774,12.6671 -0.62835,0 -4.07055,-3.16261 -7.64933,-7.02801 z"
     style="fill:#220f28"
     sodipodi:nodetypes="cccccscccccsccccccccscsccccccssscccssssssscccsssssssccsccsscsssssssccsscccccccssscsccsscccccscccccscscssccscccsccscscscccscscscscscccscccscsssscccccscscccssc" />
</svg>
